<svg xmlns:dc="http://purl.org/dc/elements/1.1/" xmlns:cc="http://creativecommons.org/ns#" xmlns:rdf="http://www.w3.org/1999/02/22-rdf-syntax-ns#" xmlns:svg="http://www.w3.org/2000/svg" xmlns="http://www.w3.org/2000/svg" version="1.1" viewBox="0 0 480 460" id="svg18">
  <defs id="defs4"></defs>
  <metadata id="metadata7">
    <rdf:rdf>
      <cc:work rdf:about="">
        <dc:format>image/svg+xml</dc:format>
        <dc:type rdf:resource="http://purl.org/dc/dcmitype/StillImage"></dc:type>
        <dc:title></dc:title>
      </cc:work>
    </rdf:rdf>
  </metadata>
  <g transform="translate(0,-592.36218)" id="layer1">
    <path d="m 151.37547,1025.5585 c 0,-2.3901 -5.72651,-4.094 -8.16356,-2.3586 -1.70411,1.2134 -2.12862,1.2434 -3.63389,0.2572 -0.86301,-0.5655 -1.89015,-0.7025 -4.06969,-0.5428 -2.83648,0.2078 -5.95072,-0.5454 -5.95072,-1.4394 0,-0.215 0.22459,-1.0353 0.4991,-1.8227 0.63846,-1.8315 -0.38077,-3.9848 -2.37403,-5.0156 -0.90181,-0.4663 -1.8859,-1.698 -2.794,-3.4969 -2.06354,-4.0879 -1.70743,-5.3361 0.93305,-3.2707 1.73411,1.3564 2.08505,1.2155 5.52449,-2.2182 4.18249,-4.1756 5.38124,-5.97388 5.6734,-8.51131 0.33751,-2.93135 10.48615,-3.27758 16.14724,-0.55085 1.78329,0.85892 3.97685,1.90963 4.87457,2.33488 9.1966,4.35668 10.17133,12.19188 2.89823,23.29698 -3.25237,4.9659 -3.64658,5.2362 -5.87596,4.0286 -1.03868,-0.5626 -1.46733,-0.5487 -2.7449,0.6565 -0.47846,2.2733 -1.02443,5.3956 -0.72753,5.626 0.97118,0.7536 5.42502,3.3483 9.0208,5.2081 7.73329,3.9998 9.86202,6.087 6.208,6.087 -0.2469,0 -1.97321,1.2608 -3.83625,2.8019 -3.87615,3.2063 -3.64937,3.1506 -6.07135,1.4896 -1.2503,-0.8574 -2.65465,-1.3301 -4.42476,-1.4896 -3.43792,-0.3095 -3.77258,-0.9952 -3.76132,-7.7052 0.007,-4.4282 0.27849,-6.3278 1.28268,-6.652 l 0.8494,-1.9477 c 0.28855,-0.4924 -1.38445,0.1176 -2.93881,0.4947 -2.01304,-0.1028 -2.55231,0.1049 -5.09949,1.9646 -1.74108,1.2711 -3.07312,1.9406 -3.4265,1.7223 -2.54949,-1.5757 1.42123,-4.3012 6.69022,-4.5923 2.08314,-0.115 4.76745,-0.7455 5.08851,-1.0026 z" id="736" style="fill:#DAC1A7" fill="#DAC1A7">
      <title id="title8918">Басарбово</title>
    </path>
    <path d="m 65.397239,987.05001 c -0.53927,-1.40533 -0.2745,-2.08741 1.798,-4.63192 2.86043,-3.51181 3.55734,-6.09176 3.84732,-14.24279 0.29301,-8.23624 0.82097,-9.45358 5.62513,-12.97016 3.05062,-2.23297 3.21606,-2.4595 4.95039,-6.77803 1.45455,-3.62189 2.11772,-4.69642 3.50238,-5.67475 0.93946,-0.66377 2.863879,-2.14369 4.276509,-3.28874 4.75265,-3.85243 16.556622,-4.44429 19.998202,-1.0027 5.31778,5.31777 -2.50918,15.72854 -19.677692,26.17362 -3.207539,1.95139 -8.222849,13.1457 -7.534199,16.81652 0.17208,0.91726 0.22654,1.66774 0.12102,1.66774 -0.10552,0 -3.53331,1.05072 -7.61733,2.33493 -8.13789,2.55893 -8.87191,2.68506 -9.28973,1.59628 z" id="286" style="fill:#DAC1A7" fill="#DAC1A7">
      <title id="title8916">Долапите</title>
    </path>
    <path d="m 143.68073,986.2815 c -0.26688,-0.32685 -2.28905,-6.16471 -4.49371,-12.97305 -2.29043,-7.07328 -4.91231,-14.17858 -6.11732,-16.57794 -1.15988,-2.30952 -2.10938,-4.36556 -2.11,-4.56893 -9.4e-4,-0.3622 5.78388,-3.13263 6.54129,-3.13263 0.85741,0 11.31176,32.66312 10.99492,34.35202 -0.41647,2.21999 -3.73743,4.22041 -4.81518,2.90053 z" id="path4867" style="fill:#2b8028">
      <title id="title8844">Централни гробища</title>
    </path>
    <path d="m 121.65636,950.27585 c -4.27103,-0.67353 -4.16877,-0.34539 -2.59258,-8.319 1.68055,-8.50154 0.80407,-11.45479 -4.56811,-15.39213 -3.52271,-2.58181 -12.79498,-1.86107 -17.860442,1.3883 -5.9034,3.78687 -6.80102,3.38816 -5.26791,-2.33997 2.03679,-7.60992 9.142062,-13.23151 17.428132,-13.78891 4.94515,-0.33258 5.47101,-0.5557 6.99295,-2.96661 2.11697,-3.35351 1.54473,-5.08687 -1.9915,-6.03233 -2.5519,-0.68231 -2.51164,-1.36238 0.23348,-3.94527 1.59293,-1.49877 2.5959,-3.01783 3.55818,-5.38903 1.68542,-4.15319 1.79245,-4.13953 5.60875,0.71595 4.60856,5.86347 4.16552,8.12367 -1.59238,8.12367 -3.02569,0 -3.41049,0.30359 -3.55162,2.8019 -0.0508,0.89897 -0.16241,2.15983 -0.24806,2.80193 -0.18463,1.38414 6.34404,6.07078 8.45681,6.07078 1.77521,0 15.52355,-4.65685 16.6046,-5.62434 2.3672,-2.11848 7.00454,-0.71094 9.47582,2.87615 2.57102,3.73185 3.31391,4.11557 5.27048,2.72238 2.08859,-1.48721 2.60795,-0.69054 1.58782,2.43554 -1.23955,3.79855 0.36528,2.98278 -15.50707,7.88233 -7.39554,2.28285 -6.9547,1.70126 -5.94254,7.83987 1.10808,6.72032 0.66887,13.93813 -0.88431,14.53246 -0.55273,0.21149 -2.58103,1.15419 -4.50734,2.09484 -4.08062,1.99267 -5.96477,2.25876 -10.70316,1.51149 z" id="305" style="fill:#DAC1A7" fill="#DAC1A7">
      <title id="title8914">Средна кула</title>
    </path>
    <path d="m 59.614789,938.79551 c -3.40971,-0.97698 -6.31581,-1.89265 -6.458,-2.03484 -0.6769,-0.67694 5.28999,-16.18726 10.54469,-27.40977 2.10053,-4.48619 4.0417,-9.31948 4.31372,-10.74068 0.76616,-4.00301 0.60027,-3.98402 8.8563,-1.01447 4.02675,1.44835 7.45534,2.7697 7.61911,2.93636 0.16376,0.16667 -1.06748,2.14935 -2.73611,4.40596 -5.0946,6.88986 -8.81863,16.28543 -13.35754,33.70049 -0.64508,2.47511 -0.68905,2.4759 -8.78217,0.15695 z" id="path4863" style="fill:#2b8028">
      <title id="title8842">Парк Приста</title>
    </path>
    <path d="m 160.75136,921.88569 c -0.45433,-0.2808 -0.39012,-1.0532 0.29399,-3.53615 1.41876,-5.14939 1.43689,-5.66769 0.24263,-6.93891 -1.30156,-1.38549 -2.35482,-1.44826 -3.47782,-0.20739 -1.30361,1.44051 -1.87284,1.16265 -4.06584,-1.98468 -2.03367,-2.91865 -2.03367,-2.91865 -5.87193,-3.31563 -3.77054,-0.38998 -3.83826,-0.41941 -3.83826,-1.66991 0,-2.04549 9.12178,-3.91091 10.42934,-2.13282 1.27971,1.74027 1.48039,1.64622 10.44898,-4.89803 4.56951,-3.33429 8.49799,-6.00289 8.72997,-5.93021 0.9273,0.29052 3.27079,7.85726 2.68234,8.66083 -2.81488,3.84394 -3.99588,9.6453 -3.09605,15.2087 0.37126,2.29546 0.57211,4.27647 0.44634,4.40222 -0.52155,0.52157 -12.3894,2.67218 -12.92369,2.34198 z" id="741" style="fill:#EDDFD0" fill="#EDDFD0">
      <title id="title8936">в.з. Средна кула</title>
    </path>
    <path d="m 99.384428,902.59506 c -0.35867,-0.93466 0.54607,-1.97902 4.312802,-4.97836 2.47937,-1.97424 6.71403,-7.38813 6.71403,-8.58369 0,-0.84229 -2.51793,-3.62183 -4.93216,-5.44458 -2.67417,-2.01902 -3.11133,-2.73917 -1.6628,-2.73917 1.07192,0 1.74726,-0.76322 2.17169,-2.45427 0.40752,-1.62371 0.89605,-1.60608 3.4893,0.12592 1.54044,1.02885 2.43701,1.33167 3.35851,1.13433 5.14083,-1.10096 5.659,11.64263 0.69111,16.9972 -1.68747,1.81881 -5.28389,4.27713 -6.25726,4.27713 -0.79229,0 -4.20565,1.05855 -6.77787,2.10194 -0.541682,0.21972 -0.911482,0.074 -1.107352,-0.43639 z" id="738" style="fill:#EDDFD0" fill="#EDDFD0">
      <title id="title8930">в.з. Кулата</title>
    </path>
    <path d="m 217.58414,900.44437 c -3.42003,-1.10096 -5.44017,-1.14801 -7.49175,-0.17447 -2.76537,1.31223 -4.8833,-0.88904 -4.88332,-5.07553 -2e-5,-3.78486 -0.2573,-3.97447 -4.37377,-3.22311 -1.57547,0.28756 -5.27206,0.74771 -8.21462,1.02253 -5.03913,0.47065 -5.58761,0.62658 -9.43512,2.68246 -2.24674,1.2005 -4.20319,2.06454 -4.34766,1.92007 -0.62076,-0.62076 -8.20737,-20.68678 -8.01291,-21.19354 0.11807,-0.30769 1.23075,-0.80964 2.47262,-1.11545 1.24187,-0.30581 3.37846,-0.9692 4.74798,-1.4742 1.36952,-0.50501 4.73181,-1.24106 7.47175,-1.63566 2.73994,-0.39461 6.2808,-1.17212 7.86856,-1.72781 2.73414,-0.95689 2.93369,-0.96794 3.77264,-0.2087 1.21065,1.09562 1.32989,1.06522 4.47455,-1.14063 1.89218,-1.3273 2.95881,-1.80785 3.36866,-1.5177 3.5484,2.51193 24.95747,30.19385 24.95747,32.26998 0,1.2552 -8.98029,1.6846 -12.37508,0.59176 z" id="740" style="fill:#EDDFD0" fill="#EDDFD0">
      <title id="title8934">в.з. Русофили</title>
    </path>
    <path d="m 140.55253,899.87886 c -1.19556,-1.0479 -1.19756,-1.0625 -0.75528,-5.48705 0.49784,-4.9804 0.78652,-4.38562 -3.46836,-7.14573 -1.94361,-1.2608 -2.30273,-1.70854 -2.14287,-2.67153 0.10563,-0.63628 0.2107,-3.67859 0.23349,-6.76069 0.0549,-7.43185 1.76032,-8.78272 8.37004,-6.63017 2.91878,0.95054 4.43435,1.20887 5.80561,0.9896 2.07452,-0.33173 1.75247,-1.05505 2.73582,6.14471 0.39416,2.88601 0.45058,2.88931 8.88151,0.52032 4.06616,-1.14254 7.60644,-1.99545 7.8673,-1.89534 0.64926,0.24914 4.84219,11.20373 4.48956,11.72958 -1.72637,2.57456 -16.01101,11.66043 -16.87474,10.73333 -0.95081,-1.02057 -0.95081,-1.02057 -7.12287,0.25489 -7.37136,1.52329 -6.55541,1.50111 -8.01921,0.21808 z" id="742" style="fill:#EDDFD0" fill="#EDDFD0">
      <title id="title8932">в.з. Трите гълъба</title>
    </path>
    <path d="m 130.3125,186.625 c -2.05365,0.13179 -5.58904,3.70056 -11.15625,11.03125 -1.95055,2.56841 -5.15281,6.47309 -7.125,8.65625 -5.64382,6.24757 -9.2394,12.00336 -11.46875,18.46875 -2.566442,7.44294 -2.86868,8.00104 -8.125,15.09375 -4.57887,6.17861 -4.566521,6.16991 -5.9375,12.46875 -0.98243,4.51364 -2.22702,8.37261 -4.40625,13.625 -8.15031,19.64407 -13.10059,33.58447 -12.25,34.4375 0.25579,0.25651 3.87009,1.66175 8.03125,3.125 4.16115,1.46325 7.86474,2.64925 8.25,2.65625 1.843649,0.0338 6.01505,-7.44794 7.875,-14.125 0.75592,-2.71374 2.22845,-6.80823 3.28125,-9.09375 1.05281,-2.2855 1.9375,-4.44374 1.9375,-4.8125 0,-1.23962 1.41716,-2.75 2.59375,-2.75 0.91362,0 7.2555,-2.79284 8.09375,-3.5625 0.1065,-0.0977 0.14755,-1.38325 0.0937,-2.875 -0.16843,-4.66719 9.08599,-18.52318 21.21875,-31.78125 1.2338,-1.34822 3.9375,0.56914 3.9375,2.78125 0,2.04304 0.67772,1.64499 2.53125,-1.40625 1.17667,-1.93701 1.6875,-3.27731 1.6875,-4.59375 0,-1.94713 0.52062,-2.71269 2.09375,-3 1.00354,-0.18329 1.9723,-3.50484 2.0625,-7.09375 0.0488,-1.94427 -2.68197,-8.73549 -4.15625,-10.34375 -2.20688,-2.4074 -4.6875,-9.08327 -4.6875,-12.65625 0,-2.31204 -0.30504,-4.25128 -0.9375,-5.90625 -0.51636,-1.35117 -1.05545,-3.5704 -1.21875,-4.9375 -0.2789,-2.33487 -0.98656,-3.48532 -2.21875,-3.40625 z m -3,28.03125 c 0.96767,-0.0607 1.98818,0.0975 3,0.53125 6.93607,2.97315 7.38855,4.82309 2.3125,9.46875 -2.16432,1.98081 -4.15055,3.59375 -4.40625,3.59375 -0.89243,0 -4.49051,-3.09553 -4.65625,-4 -0.0919,-0.50152 -0.42379,-1.20849 -0.75,-1.59375 -2.86478,-3.38332 0.30675,-7.73696 4.5,-8 z" transform="translate(0,592.36218)" id="290" style="fill:#EDDFD0" fill="#EDDFD0">
      <title id="title8850">Промишлена зона - Запад</title>
    </path>
    <path d="m 126.39263,817.07943 c -0.57083,-0.39983 -1.03788,-1.21467 -1.03788,-1.81076 0,-0.5961 -0.31521,-1.34541 -0.70047,-1.66515 -2.50646,-2.08018 1.64641,-5.42014 4.96305,-3.99155 4.38914,1.89053 4.63823,2.77359 1.57472,5.58248 -3.10208,2.84427 -3.31209,2.92674 -4.79942,1.88498 z" id="304" style="fill:#DAC1A7" fill="#DAC1A7">
      <title id="title8864">Сарая</title>
    </path>
    <path d="m 153.20034,877.23012 c -0.13002,-0.44947 -0.37816,-2.22974 -0.55143,-3.95616 -0.39502,-3.93579 -0.8646,-4.37667 -3.8473,-3.61223 -2.08367,0.53403 -2.57014,0.47777 -6.13546,-0.7096 -3.87236,-1.28961 -3.87236,-1.28961 -6.10742,-0.24276 -2.78194,1.30299 -2.92561,1.20788 -3.96253,-2.62281 -0.82254,-3.03871 -0.82177,-3.14237 0.028,-3.76377 1.76879,-1.29337 4.48313,-1.70915 5.85753,-0.89727 2.72369,1.60892 4.01447,0.76935 4.23829,-2.75672 0.16648,-2.62306 0.52583,-2.84826 7.85185,-4.92069 1.92631,-0.54493 5.21996,-1.70988 7.31924,-2.58879 2.09928,-0.87891 4.56068,-1.59802 5.46978,-1.59802 0.90911,0 2.65887,-0.39165 3.88838,-0.87032 1.2295,-0.47869 5.17746,-1.23161 8.77324,-1.67316 6.06228,-0.74443 6.64129,-0.9019 7.96096,-2.16506 0.78275,-0.74923 1.55035,-1.36225 1.70576,-1.36225 1.32437,0 17.46166,20.5534 17.02688,21.68642 -0.54343,1.41617 -4.04188,3.29028 -5.01158,2.68469 -1.2617,-0.78794 -2.33634,-0.69384 -4.86863,0.4263 -1.21999,0.53966 -4.7666,1.35996 -7.88134,1.8229 -3.11474,0.46292 -6.2684,1.07728 -7.00812,1.36524 -8.02003,3.12205 -24.40538,6.93204 -24.74613,5.75406 z" id="739" style="fill:#EDDFD0" fill="#EDDFD0">
      <title id="title8928">в.з. Левента</title>
    </path>
    <path d="m 202.99966,860.65218 c -1.25939,-1.60525 -3.3161,-4.28458 -4.57047,-5.95404 -1.25437,-1.66947 -4.12969,-5.16061 -6.38961,-7.75808 -4.98801,-5.73308 -5.15622,-4.74617 1.37813,-8.086 4.23666,-2.16546 6.36599,-3.61568 9.34403,-6.36399 4.25823,-3.92973 3.1916,-4.34954 15.76745,6.20605 7.11454,5.97161 7.39546,9.29119 1.15638,13.66481 -3.42734,2.40257 -4.71515,3.61867 -5.66215,5.34685 -0.98369,1.79513 -1.85992,2.59315 -4.43635,4.04033 -4.10013,2.30306 -3.89382,2.33739 -6.58741,-1.09593 z" id="289" style="fill:#DAC1A7" fill="#DAC1A7">
      <title id="title8908">Дружба 3</title>
    </path>
    <path d="m 112.28376,860.65218 c 0.008,-3.34481 1.92141,-6.41962 10.94566,-17.58662 10.99566,-13.60652 11.90875,-14.18656 8.06214,-5.12147 -3.5236,8.30386 -4.64535,11.58434 -4.35578,12.7381 0.31664,1.26159 -3.26843,4.70123 -9.70617,9.31246 -4.49366,3.21872 -4.95188,3.27964 -4.94585,0.65753 z" id="737" style="fill:#EDDFD0" fill="#EDDFD0">
      <title id="title8926">в.з. Д. Басарбовски</title>
    </path>
    <path d="m 127.78964,860.09931 c -4.70623,-0.92686 -4.95778,-0.56476 8.63126,-12.42503 12.38879,-10.81272 12.58251,-10.9572 21.382,-15.94696 10.50632,-5.95763 9.03475,-5.74766 13.22281,-1.88664 3.68671,3.39882 3.52283,5.57036 -0.53883,7.13962 -0.808,0.31218 -2.78305,1.16919 -4.389,1.90447 -1.60595,0.73527 -3.24458,1.33685 -3.64143,1.33685 -2.37799,0 -3.51933,3.23144 -1.84438,5.222 1.37119,1.62957 1.50414,2.71674 0.33222,2.71674 -0.45937,0 -1.66769,0.42487 -2.68515,0.94417 -1.01747,0.51931 -3.21586,1.38252 -4.88533,1.91825 -1.66947,0.53573 -3.7709,1.23836 -4.66985,1.56139 -0.89894,0.32302 -2.36994,0.72128 -3.26889,0.88502 -3.24768,0.59153 -4.66984,1.88811 -4.66984,4.25748 0,2.04248 -0.85553,2.90161 -1.63444,1.64131 -0.4543,-0.73508 -2.58962,-0.5494 -5.37032,0.46698 -1.40537,0.51368 -2.66327,0.91338 -2.79532,0.88822 -0.13203,-0.0251 -1.56102,-0.3059 -3.17551,-0.62387 z" id="288" style="fill:#DAC1A7" fill="#DAC1A7">
      <title id="title8902">Дружба 2</title>
    </path>
    <path d="m 298.45285,854.81488 c -0.1145,-0.19263 -0.35756,-2.03138 -0.54016,-4.08611 -1.07817,-12.13162 -10.49337,-28.21307 -14.40674,-24.60728 -2.17578,2.0047 -8.74657,3.5456 -9.9293,2.32848 -2.16168,-2.22451 -18.042,-20.70892 -18.26179,-21.25639 -0.3188,-0.79408 3.14056,-9.00054 3.79409,-9.00054 0.29188,0 4.41227,1.15259 9.15646,2.5613 11.35691,3.37229 11.35158,3.37625 16.53012,-12.33212 2.83622,-8.60336 2.83622,-8.60336 5.99813,-9.75803 3.96006,-1.44617 3.52274,-2.72438 3.89259,11.37823 0.40231,15.34145 -0.14439,14.0467 6.10843,14.46674 3.59232,0.24133 5.38638,0.57254 6.21692,1.14776 0.73583,0.50959 2.54884,0.9214 4.90333,1.11374 6.73214,0.54995 6.0221,-0.17754 9.42388,9.6556 5.04058,14.57005 5.07636,14.64963 6.99819,15.5661 1.89259,0.9025 9.96254,7.63705 9.96254,8.31394 0,0.23872 -4.77505,2.74501 -10.61119,5.5695 -11.54348,5.58664 -12.10399,5.7134 -13.65877,3.08925 -2.14949,-3.62792 -2.32017,-3.59512 -9.11941,1.7526 -5.67587,4.46419 -6.08494,4.72376 -6.45732,4.09723 z" id="886" style="fill:#EDDFD0" fill="#EDDFD0">
      <title id="title8922">в.з. Касева Чешма</title>
    </path>
    <path d="m 129.35751,849.14832 c -0.44351,-0.71761 1.49752,-4.70296 3.41312,-7.00784 3.50799,-4.2209 8.19322,-12.27061 8.4525,-14.52227 0.24258,-2.10661 0.24258,-2.10661 2.811,-2.37629 1.41262,-0.14833 3.17809,-0.44177 3.92327,-0.65209 1.35487,-0.38241 1.35487,-0.38241 1.04208,1.67064 -0.17204,1.12917 -0.44548,3.1766 -0.60763,4.54984 -0.29464,2.49498 -0.29883,2.50034 -5.71192,7.28633 -11.68664,10.33275 -13.06175,11.47347 -13.32242,11.05168 z" id="299" style="fill:#DAC1A7" fill="#DAC1A7">
      <title id="title8866">Новата махала</title>
    </path>
    <path d="m 356.05307,845.99192 c -2.6181,-2.19599 -4.68199,-4.63 -4.67278,-5.5108 0.004,-0.27116 5.7063,-2.80458 12.67446,-5.62984 13.80069,-5.59554 15.9803,-7.28941 23.64626,-18.37661 3.91025,-5.65537 2.19244,-5.17402 16.6159,-4.65608 12.54764,0.45058 12.54764,0.45058 14.33236,-0.98369 3.02484,-2.43081 3.24045,-1.91539 3.24045,7.74497 0,7.74941 1.30303,7.38947 -19.84683,5.48253 -3.00677,-0.27111 -20.50033,9.33766 -36.15897,19.86124 -7.09797,4.77028 -6.70743,4.6881 -9.83085,2.06828 z" id="887" style="fill:#EDDFD0" fill="#EDDFD0">
      <title id="title8924">в.з. Липака</title>
    </path>
    <path d="m 164.13731,845.07963 c -1.91069,-2.17615 -1.70105,-2.90735 1.1446,-3.99235 1.28421,-0.48964 2.7552,-1.08545 3.26889,-1.32401 0.51368,-0.23857 1.74499,-0.75729 2.73625,-1.1527 0.99126,-0.39542 2.60643,-1.61315 3.58927,-2.70609 1.78697,-1.98717 1.78697,-1.98717 5.65273,1.85225 5.13619,5.10124 4.51294,6.16519 -4.17281,7.12335 -3.00878,0.33192 -6.58403,0.89053 -7.94497,1.24139 -1.36095,0.35086 -2.5475,0.63792 -2.63678,0.63792 -0.0893,0 -0.82602,-0.75589 -1.63718,-1.67976 z" id="297" style="fill:#DAC1A7" fill="#DAC1A7">
      <title id="title8904">Мальовица</title>
    </path>
    <path d="m 216.79339,834.45974 c -4.28755,-3.63727 -7.96505,-6.79334 -8.17223,-7.0135 -1.02914,-1.09356 5.32903,-5.53062 14.5668,-10.16546 5.42857,-2.72366 9.74806,-5.19171 10.31489,-5.89366 2.84628,-3.52471 2.36521,6.56975 -0.62863,13.19051 -1.27754,2.82526 -2.58406,5.9774 -2.90336,7.00477 -0.3193,1.02736 -1.2022,2.66126 -1.962,3.63089 -0.7598,0.96964 -1.79742,2.70331 -2.30581,3.85262 -0.5084,1.14931 -0.96706,2.07108 -1.01925,2.04836 -0.0521,-0.0227 -3.60288,-3.01725 -7.89041,-6.65453 z" id="311" style="fill:#DAC1A7" fill="#DAC1A7">
      <title id="title8912">Чародейка - Юг</title>
    </path>
    <path d="m 177.99246,832.1471 c -4.31022,-4.1632 -7.83011,-7.72603 -7.82199,-7.91737 0.008,-0.19135 4.06002,-2.36762 9.00422,-4.83616 4.94419,-2.46854 9.35217,-4.80919 9.7955,-5.20143 0.78766,-0.6969 13.34441,9.87285 15.02305,12.64578 1.15614,1.90983 -14.27337,13.08574 -17.80661,12.89768 -0.19658,-0.011 -3.88396,-3.42529 -8.19417,-7.5885 z" id="287" style="fill:#DAC1A7" fill="#DAC1A7">
      <title id="title8906">Дружба 1</title>
    </path>
    <path d="m 150.77105,829.36422 c 0.16784,-0.83473 0.42642,-4.06844 0.57463,-7.18601 0.26946,-5.66833 0.26946,-5.66833 1.96602,-5.94892 4.50628,-0.74528 5.78628,-0.44142 8.11862,1.92731 2.53886,2.57848 2.61977,2.35678 -2.21921,6.08021 -2.05473,1.58104 -4.68151,3.71671 -5.8373,4.74593 -2.55942,2.27914 -2.9972,2.34331 -2.60276,0.38148 z" id="298" style="fill:#DAC1A7" fill="#DAC1A7">
      <title id="title8900">Мидия Енос</title>
    </path>
    <path d="m 160.84556,825.97898 c 0,-0.36062 8.3065,-6.43823 11.20762,-8.20025 3.4511,-2.09608 3.2823,-1.56487 3.23003,-10.16452 -0.0516,-8.48327 -0.003,-8.71208 1.36626,-6.5271 0.53181,0.84824 3.18257,3.52943 5.89057,5.95818 5.78726,5.19052 5.75677,5.0816 2.00497,7.1632 -6.98313,3.87441 -23.69945,12.17668 -23.69945,11.77049 z" id="303" style="fill:#DAC1A7" fill="#DAC1A7">
      <title id="title8898">Родина 4</title>
    </path>
    <path d="m 198.67127,818.72354 c -8.69864,-7.83972 -8.22461,-6.39361 -3.77073,-11.50323 4.84398,-5.55715 27.16949,-18.94009 28.82846,-17.2811 1.36818,1.36817 0.3157,6.11212 -1.43845,6.48367 -4.02042,0.85159 -4.57231,5.973 -0.64365,5.973 3.30211,0 -0.31149,2.8838 -5.6089,4.47613 -2.23172,0.67084 -4.58302,1.37346 -5.22513,1.5614 -2.01008,0.58834 -1.96913,6.4871 0.0664,9.56017 1.50278,2.26879 1.50278,2.26879 -1.26648,4.75845 -3.52675,3.17065 -2.55772,3.52744 -10.9415,-4.02849 z" id="310" style="fill:#DAC1A7" fill="#DAC1A7">
      <title id="title8910">Чародейка - Север</title>
    </path>
    <path d="m 144.9681,821.79905 c 0,-0.68495 0.21921,-2.65828 0.48714,-4.38516 0.50499,-3.2547 -2.00122,-10.43515 -4.67129,-13.38357 -1.90379,-2.10225 -4.3027,-8.68658 -3.99088,-10.95383 0.21785,-1.58393 -0.003,-3.08309 -0.86354,-5.86091 -1.9977,-6.44875 -1.99965,-7.08717 -0.0348,-11.38546 2.24976,-4.92167 2.57568,-4.80694 3.89979,1.37295 0.60823,2.83865 1.70588,6.42995 2.43926,7.98066 1.05135,2.22308 1.33342,3.47818 1.33342,5.93334 0,2.2332 0.39621,4.27877 1.40094,7.23278 0.77053,2.26541 1.40095,4.47554 1.40095,4.91142 0,0.43586 0.60725,3.30894 1.34943,6.38458 2.11753,8.77513 2.30395,11.77333 0.76832,12.35716 -3.04041,1.15596 -3.5187,1.12824 -3.5187,-0.20396 z" id="283" style="fill:#DAC1A7" fill="#DAC1A7">
      <title id="title8862">Веждата</title>
    </path>
    <path d="m 212.8782,816.82029 c -2.72852,-3.93724 -2.02159,-6.419 2.13753,-7.50417 4.72859,-1.23374 6.80912,-2.22074 9.57317,-4.5415 2.7534,-2.31181 3.80921,-2.30025 7.32087,0.0802 2.65599,1.80041 2.65042,1.77029 0.76255,4.1195 -1.19327,1.48487 -3.08362,2.6412 -9.4979,5.80993 -9.35128,4.61964 -8.60771,4.4726 -10.29622,2.03606 z" id="path4819" style="fill:#2b8028">
      <title id="title8840">Гробищен парк - Чародейка</title>
    </path>
    <path d="m 166.54692,817.48791 c -0.23997,-0.46695 -0.56599,-2.76524 -0.72448,-5.10731 -0.15848,-2.34206 -0.92841,-8.5252 -1.71094,-13.74028 -1.69096,-11.26906 -2.07178,-10.62572 5.01993,-8.48047 6.41119,1.93937 6.23957,1.7244 4.77033,5.97538 -0.87084,2.51966 -0.9258,3.4278 -0.63528,10.49767 0.31803,7.73942 0.31803,7.73942 -1.96534,9.06671 -1.25585,0.73002 -2.74113,1.62206 -3.30062,1.98232 -0.90243,0.58104 -1.06654,0.55915 -1.4536,-0.19402 z" id="309" style="fill:#DAC1A7" fill="#DAC1A7">
      <title id="title8872">Централен южен район</title>
    </path>
    <path d="m 162.01154,815.46989 c -1.26794,-1.32344 -1.47654,-1.3737 -6.23014,-1.50109 -5.40221,-0.14478 -5.55676,-0.35482 -7.08766,-9.6329 -0.26892,-1.62983 -1.12515,-4.9494 -1.90272,-7.37681 -2.07641,-6.48211 -2.20673,-6.19956 5.18184,-11.23347 3.46735,-2.36236 6.55744,-4.30618 6.86685,-4.31961 0.66201,-0.0288 0.58492,-0.43722 2.90417,15.38605 2.89639,19.76077 2.92054,21.44686 0.26766,18.67783 z" id="312" style="fill: rgb(218, 193, 167); fill-opacity: 1;" fill="#DAC1A7" cursor="pointer">
      <title id="title8868">Широк център</title>
    </path>
    <path d="m 183.84204,805.23943 c -5.84379,-5.31038 -7.83317,-8.15091 -7.38429,-10.5436 0.49493,-2.63822 0.7245,-2.65971 9.85349,-0.92186 4.61487,0.87852 10.22942,1.93882 12.47679,2.35622 4.87957,0.90628 4.90384,0.97881 1.12126,3.35048 -1.86719,1.17072 -4.30428,3.39437 -6.58271,6.00621 -1.98982,2.28099 -3.78207,4.20874 -3.98278,4.28388 -0.20072,0.0751 -2.6765,-1.96397 -5.50176,-4.53133 z" id="302" style="fill:#DAC1A7" fill="#DAC1A7">
      <title id="title8896">Родина 3</title>
    </path>
    <path d="m 221.5535,800.07738 c 0,-0.99008 1.27281,-1.88436 2.68196,-1.88436 2.23795,0 2.60896,-0.93633 2.04157,-5.15232 -0.66739,-4.95914 -5.16711,-2.10206 36.77856,-23.3525 36.13174,-18.30503 36.13174,-18.30503 43.89194,-17.89907 6.65382,0.34808 7.78117,0.51625 7.90735,1.17969 0.2616,1.3751 -7.20813,9.19255 -9.12781,9.55268 -2.23008,0.41837 -14.92866,8.89586 -16.94715,11.31381 -4.51816,5.41233 -36.60896,21.09511 -42.51585,20.77749 -5.44332,-0.29268 -5.44332,-0.29268 -12.78171,3.04473 -8.04466,3.6586 -11.92886,4.44654 -11.92886,2.41985 z" id="890" style="fill:#ADD6A8" fill="#ADD6A8">
      <title id="title8920">в.з. Кръста</title>
    </path>
    <path d="m 197.73732,793.82807 c -4.23789,-0.81319 -7.70525,-1.68729 -7.70525,-1.94243 0,-3.96175 2.52023,-5.77324 12.65704,-9.09761 12.50124,-4.09978 11.40306,-4.15558 13.22508,0.67193 1.01045,2.6772 1.78127,4.03892 2.39692,4.23432 0.49911,0.15841 0.90747,0.55115 0.90747,0.87275 0,0.53948 -12.51052,6.87714 -13.38733,6.78184 -0.21379,-0.0233 -3.85606,-0.70759 -8.09393,-1.5208 z" id="301" style="fill:#DAC1A7" fill="#DAC1A7">
      <title id="title8894">Родина 2</title>
    </path>
    <path d="m 181.85985,790.79358 c -3.96937,-0.77278 -3.96937,-0.77278 -4.29142,-6.84358 -0.23622,-4.45293 -0.174,-6.20688 0.23348,-6.58144 0.81654,-0.75053 17.50369,-6.37557 18.00131,-6.06802 1.1668,0.72112 -8.0001,20.43186 -9.4457,20.31025 -0.29057,-0.0244 -2.31452,-0.39218 -4.49767,-0.81721 z" id="750" style="fill:#EDDFD0" fill="#EDDFD0">
      <title id="title8874">Централен кооп. пазар</title>
    </path>
    <path d="m 168.08381,787.61017 c -5.63763,-1.78679 -6.30428,-2.30282 -6.30428,-4.87977 0,-1.58975 0.13231,-1.7687 1.51769,-2.05256 0.83474,-0.17105 3.69048,-0.94647 6.34608,-1.72316 5.7828,-1.6913 5.48803,-1.93694 5.85468,4.87858 0.35119,6.52803 0.7021,6.34927 -7.41417,3.77691 z" id="306" style="fill: rgb(218, 193, 167); fill-opacity: 1;" fill="#DAC1A7" cursor="pointer">
      <title id="title8870">Хъшове</title>
    </path>
    <path d="m 220.96978,786.7183 c -1.78741,-0.96969 -1.61941,-1.44982 0.93397,-2.66927 2.07094,-0.98903 2.21025,-1.16696 2.09887,-2.68062 -0.0657,-0.89169 -0.19198,-2.88627 -0.28082,-4.43238 -0.0888,-1.54612 -0.59775,-3.7973 -1.13094,-5.00263 -0.81392,-1.84002 -0.88345,-2.4192 -0.43358,-3.61107 0.49588,-1.31372 0.42371,-1.52194 -0.96794,-2.79303 -1.22151,-1.11567 -2.09179,-3.29406 -1.316,-3.29406 0.19978,0 13.55566,-2.54394 17.09065,-3.25531 2.77855,-0.55914 2.72752,-0.65139 3.76871,6.81223 0.66509,4.76764 1.21198,7.05586 2.06668,8.64718 1.43289,2.66778 2.32624,1.94192 -9.91726,8.05803 -10.96141,5.47566 -10.13758,5.18374 -11.91234,4.22093 z" id="292" style="fill: rgb(218, 193, 167); fill-opacity: 1;" fill="#DAC1A7" cursor="pointer">
      <title id="title8886">Здравец</title>
    </path>
    <path d="m 144.10137,784.11888 c -0.72733,-1.63394 -1.99631,-5.77447 -2.81997,-9.20121 -1.72372,-7.17137 -2.41977,-5.59341 7.65434,-17.35228 2.97056,-3.46735 5.52783,-6.89203 5.68279,-7.6104 0.28597,-1.3257 2.64325,-3.6204 12.75476,-12.4162 2.69133,-2.34112 5.11855,-4.25657 5.39385,-4.25657 0.85428,0 5.81085,4.68928 6.59251,6.23699 0.40783,0.80754 1.15369,1.91962 1.65748,2.47131 1.12256,1.22928 1.21687,1.01791 -5.12507,11.48666 -4.45438,7.3529 -4.45438,7.3529 -3.22509,11.44112 2.64925,8.8106 2.88173,10.85947 1.23216,10.85947 -0.49544,0 -2.84715,0.62125 -5.226,1.38053 -2.37886,0.7593 -5.79619,1.52781 -7.59408,1.70784 -3.08798,0.30918 -3.57363,0.53122 -8.77495,4.01174 -7.24084,4.84527 -6.63888,4.75421 -8.20273,1.241 z" id="308" style="fill:#DAC1A7" fill="#DAC1A7">
      <title id="title8860">Център</title>
    </path>
    <path d="m 194.32129,782.92227 c -0.33278,-0.53843 4.27605,-11.86298 5.22072,-12.82803 1.01424,-1.03613 8.31585,-3.80589 8.96896,-3.40224 0.59688,0.36889 4.63682,8.91244 4.63682,9.8058 0,0.36821 -3.41222,1.73714 -8.75596,3.51277 -4.81577,1.60019 -8.99737,2.99791 -9.29244,3.10603 -0.29508,0.10816 -0.64522,0.0206 -0.7781,-0.19433 z" id="300" style="fill:#DAC1A7" fill="#DAC1A7">
      <title id="title8892">Родина 1</title>
    </path>
    <path d="m 217.18573,780.94981 c -1.04502,-2.61174 -0.99456,-3.01461 0.74101,-5.91628 2.22448,-3.71908 3.39209,-3.31257 3.28773,1.14465 -0.0325,1.38707 0.14423,3.05659 0.39268,3.71006 0.552,1.45188 -0.12548,2.27824 -2.2095,2.69504 -1.34712,0.26943 -1.4939,0.16103 -2.21192,-1.63347 z" id="path4797" style="fill:#2b8028">
      <title id="title8838">Стадион Дунав</title>
    </path>
    <path d="m 244.94466,773.64257 c -1.8493,-3.13433 -3.42094,-15.37753 -2.02662,-15.7876 1.66503,-0.48972 55.67589,-10.56323 56.63652,-10.56323 2.52242,0 -1.07443,2.01958 -25.96806,14.58072 -29.73612,15.00463 -27.31939,14.01148 -28.64184,11.77011 z" id="293" style="fill: rgb(218, 193, 167); fill-opacity: 1;" fill="#DAC1A7" cursor="pointer">
      <title id="title8884">Здравец Изток</title>
    </path>
    <path d="m 177.51395,774.52319 c -0.26166,-0.42337 -2.68191,-9.77925 -2.81135,-10.86774 -0.0521,-0.4373 0.5042,-0.78512 1.55344,-0.97141 0.89894,-0.1596 3.7826,-1.49766 6.40813,-2.97344 2.62553,-1.47579 4.97989,-2.55581 5.23192,-2.40005 1.10847,0.68507 8.48751,10.1988 8.29648,10.69659 -0.11666,0.30406 -4.07223,1.89517 -8.79012,3.53582 -4.7179,1.64064 -8.81942,3.06883 -9.1145,3.17375 -0.29507,0.10497 -0.64337,0.0179 -0.774,-0.19352 z" id="313" style="fill:#DAC1A7" fill="#DAC1A7">
      <title id="title8876">Ялта</title>
    </path>
    <path d="m 212.944,770.34493 c -2.55613,-5.39605 -2.53831,-4.69966 -0.14645,-5.72375 3.92121,-1.6789 3.86198,-1.68604 5.44233,0.65559 1.82057,2.69757 1.84211,2.4864 -0.64632,6.33312 -2.56704,3.96824 -2.11191,4.09205 -4.64956,-1.26496 z" id="743" style="fill:#EDDFD0" fill="#EDDFD0">
      <title id="title8890">Завод Найден Киров</title>
    </path>
    <path d="m 193.5782,760.54125 c -3.88927,-4.86559 -4.71359,-6.17402 -4.71359,-7.48176 0,-0.87171 -0.47909,-2.36844 -1.06464,-3.3261 -0.58555,-0.95764 -1.29544,-2.16145 -1.57753,-2.67514 -0.37734,-0.68713 -0.89819,-0.89522 -1.97076,-0.78735 -1.59598,0.1605 -1.79316,-0.21004 -0.82,-1.54091 0.56795,-0.77673 0.79835,-0.80585 2.10239,-0.26569 1.44441,0.59829 1.61154,0.5128 12.15386,-6.21703 12.57044,-8.0245 11.92273,-7.71406 13.14358,-6.29965 1.86488,2.16055 8.38707,12.06008 8.38707,12.73008 0,1.65007 -18.83971,21.76039 -20.38552,21.76039 -0.2977,0 -2.66239,-2.65357 -5.25486,-5.89684 z" id="285" style="fill:#DAC1A7" fill="#DAC1A7">
       <title>Възраждане</title>
    </path>
    <path d="m 204.74208,764.72383 c 0,-0.17232 2.47657,-2.85165 5.50347,-5.95404 3.02691,-3.10241 6.52527,-6.95414 7.77413,-8.5594 3.4062,-4.37826 4.90557,-3.27928 5.81605,4.26296 0.60871,5.04241 0.78335,4.75235 -3.27338,5.43662 -1.82753,0.30825 -6.04539,1.58796 -9.37305,2.84381 -6.50914,2.45654 -6.44722,2.43762 -6.44722,1.97005 z" id="294" style="fill:#DAC1A7" fill="#DAC1A7">
      <title id="title8888">Здравец Север 1</title>
    </path>
    <path d="m 174.85509,760.33717 c 0,-1.74842 5.76992,-10.30051 7.41658,-10.99274 2.31648,-0.97379 5.53199,2.64253 4.57261,5.14262 -0.55199,1.43849 -11.98919,7.01926 -11.98919,5.85012 z" id="path4785" style="fill:#2b8028">
      <title id="title8836">Парк на Възрожденците</title>
    </path>
    <path d="m 225.9989,755.81421 c -0.16041,-1.47684 -0.38364,-3.13395 -0.49607,-3.68245 -0.5105,-2.49048 13.53225,-6.83007 31.69987,-9.79611 14.10529,-2.30282 14.78508,-2.52475 14.78508,-4.82675 0,-2.70872 0.45419,-2.63386 13.99949,2.30743 12.46371,4.54672 13.44644,4.94769 13.0467,5.32333 -0.28137,0.2644 -70.64852,13.3597 -71.78789,13.3597 -0.81811,0 -0.99746,-0.38616 -1.24718,-2.68515 z" id="744" style="fill:#DAC1A7" fill="#DAC1A7">
      <title id="title8882">Здравец Север 2</title>
    </path>
    <path d="m 223.46608,746.56206 c -1.58266,-2.68242 -0.44402,-3.70421 13.72248,-12.31427 15.85262,-9.63484 14.24461,-9.36404 24.94842,-4.20147 8.02718,3.87159 8.02718,3.87159 7.8883,5.99689 -0.13893,2.1253 -0.13893,2.1253 -14.61541,4.53843 -12.95422,2.15936 -15.2851,2.68815 -22.16584,5.0286 -9.10046,3.09545 -8.54506,3.04139 -9.77795,0.95182 z" id="749" style="fill: rgb(237, 223, 208); fill-opacity: 1;" fill="#EDDFD0" cursor="pointer">
      <title id="title8880">Търговия на едро</title>
    </path>
    <path d="m 301.09375,50.59375 c -1.01042,-0.40788 -37.18304,28.2961 -50.8125,40.3125 -7.19156,6.34042 -16.69449,14.66601 -21.125,18.5 -4.43052,3.834 -8.0625,7.1879 -8.0625,7.46875 0,1.35965 1.26261,2.11048 4.125,2.40625 2.9986,0.30985 3.94098,0.76902 8.5625,4.40625 0.93427,0.73529 5.38952,2.56538 11.125,4.53125 6.6711,2.28656 12.2412,4.58383 18.40625,7.625 6.40081,3.15749 12.98221,5.87378 23.8125,9.8125 8.23308,2.99416 15.24163,5.4763 15.5625,5.5 0.32091,0.0237 2.65191,-1.88935 5.15625,-4.25 5.954,-5.61231 6.06755,-5.93973 6.9375,-19.0625 0.36611,-5.52209 1.08502,-15.18813 1.59375,-21.46875 0.50873,-6.28062 0.90625,-13.85407 0.90625,-16.84375 0,-4.21955 0.21251,-6.049 0.9375,-8.15625 0.51369,-1.49305 0.9375,-2.7554 0.9375,-2.8125 0,-0.05712 -2.01246,-2.7097 -4.46875,-5.875 -3.43472,-4.42612 -4.38764,-5.9523 -4.15625,-6.6875 0.82096,-2.60827 0.7491,-2.83451 -1.96875,-5.90625 -1.49127,-1.68541 -3.65672,-4.44735 -4.8125,-6.15625 -1.15579,-1.70889 -2.35528,-3.22226 -2.65625,-3.34375 z M 265.125,99.125 c 1.24574,-0.02029 2.13993,1.60014 5.25,7.03125 4.18156,7.30221 4.20035,6.89741 -0.8125,9.78125 -7.95353,4.57558 -7.51267,4.15836 -6.375,6.5 1.26431,2.60236 1.08066,3.04229 -2.46875,5.625 -3.84809,2.80006 -3.33813,2.90557 -15.125,-3.5625 -9.5448,-5.23772 -10.94965,-6.12271 -10.96875,-7.03125 -0.0346,-1.64731 12.95116,-9.65901 28.34375,-17.5 0.95654,-0.487263 1.59,-0.83453 2.15625,-0.84375 z" transform="translate(0,592.36218)" id="296" style="fill: rgb(237, 223, 208); fill-opacity: 1;" fill="#EDDFD0" cursor="pointer">
      <title id="title8848">Промишлена зона - Изток</title>
    </path>
    <path d="m 247.24329,715.37517 c -4.74847,-2.60793 -8.68218,-5.05691 -8.7416,-5.44217 -0.20677,-1.34083 11.01628,-8.87269 13.22099,-8.87269 0.32298,0 1.83435,2.04888 3.35859,4.55309 1.52425,2.5042 3.64752,5.97979 4.71837,7.72355 2.18007,3.54991 2.18403,3.51621 -0.64512,5.46271 -2.66396,1.83286 -1.98154,2.02906 -11.91123,-3.42449 z" id="748" style="fill: rgb(218, 193, 167); fill-opacity: 1;" fill="#DAC1A7" cursor="pointer">
      <title id="title8856">Тракцията</title>
    </path>
    <path d="m 257.38849,705.2233 c -3.69651,-6.04723 -3.87324,-5.31613 2.07328,-8.57682 5.97847,-3.27821 5.36995,-3.44487 8.72663,2.39 3.55996,6.18819 3.69824,5.49513 -1.73149,8.67834 -5.84295,3.42548 -5.37247,3.55474 -9.06842,-2.49152 z" id="291" style="fill:#DAC1A7" fill="#DAC1A7">
      <title id="title8854">Захарна фабрика</title>
    </path>
    <path d="m 220.82221,742.26594 c -2.07306,-1.4347 -3.60501,-4.9444 -2.53601,-5.81002 2.30385,-1.86555 7.17037,-4.23825 10.03132,-4.89084 5.21775,-1.19017 8.64647,-4.73017 8.64647,-8.92707 0,-0.99479 0.12055,-1.92926 0.26789,-2.0766 0.25169,-0.2517 10.31628,2.94068 11.41828,3.62176 0.28002,0.17306 -5.22935,3.77767 -12.24305,8.01023 -7.01369,4.23258 -13.27754,8.30792 -13.91964,9.05632 -0.65385,0.7621 -1.38646,1.20917 -1.66526,1.01622 z" id="747" style="fill:#EDDFD0" fill="#EDDFD0">
      <title id="title8878">Товарна гара</title>
    </path>
    <path d="m 185.80152,741.64312 c -0.48038,-0.77727 -0.29831,-0.90489 18.87896,-13.23278 14.76917,-9.4942 20.87764,-13.09395 18.00935,-10.61303 -6.47075,5.59688 -11.29952,9.07667 -22.21771,16.01092 -13.02923,8.275 -14.05879,8.82483 -14.6706,7.83489 z" id="284" style="fill:#DAC1A7" fill="#DAC1A7">
      <title>Алеи Възраждане</title>
    </path>
    <path d="m 181.65283,739.2491 c -0.39983,-0.57082 -0.72695,-1.29394 -0.72695,-1.60691 0,-0.31296 -1.26086,-1.67889 -2.80191,-3.03537 -3.61903,-3.18561 -3.68246,-3.00918 2.45167,-6.81925 7.34315,-4.56102 8.09816,-4.89077 11.78763,-5.1484 2.72536,-0.1903 3.81925,-0.54127 6.5415,-2.09884 11.94037,-6.8318 14.26352,-7.64052 20.39044,-7.09816 4.67941,0.41421 6.15931,-0.84681 -14.78663,12.59981 -9.50313,6.10072 -18.27708,11.80158 -19.49767,12.6686 -2.6319,1.86951 -2.44663,1.8398 -3.35808,0.53852 z" id="path4767" style="fill:#2b8028">
      <title id="title8834">Младежки парк</title>
    </path>
    <path d="m 214.13597,732.77242 c -2.31792,-2.91117 -2.3536,-3.32574 -0.40445,-4.69789 2.92611,-2.05991 12.89169,-10.73127 13.63275,-11.86226 0.99322,-1.51587 1.14222,-1.48119 4.10038,0.95413 5.97186,4.91637 3.71195,10.69608 -5.00781,12.80746 -2.09846,0.50812 -6.36429,2.5692 -9.30376,4.49522 -1.06048,0.69485 -1.15551,0.64142 -3.01711,-1.69666 z" id="307" style="fill: rgb(218, 193, 167); fill-opacity: 1;" fill="#DAC1A7" cursor="pointer">
      <title id="title8858">Цветница</title>
    </path>
    <path d="m 334.72777,720.26972 c -0.2298,-0.1631 -2.70959,-2.92334 -5.51065,-6.13386 -2.80106,-3.21051 -5.62113,-6.41618 -6.26688,-7.12371 -1.49776,-1.64108 -1.10073,-2.08132 10.21247,-11.32401 4.49473,-3.67209 10.79589,-9.32422 14.00253,-12.56028 3.20668,-3.23606 6.01322,-5.88375 6.23681,-5.88375 1.09372,0 11.41295,8.49721 14.38503,11.8451 1.85481,2.08938 3.90253,4.38084 4.55043,5.09214 1.43509,1.57553 -2.02806,5.45825 -10.92225,12.24548 -5.23013,3.99117 -25.64696,14.58145 -26.68749,13.84289 z" id="746" style="fill: rgb(237, 223, 208); fill-opacity: 1;" fill="#EDDFD0" cursor="pointer">
      <title id="title8852">Нова промишлена зона</title>
    </path>
    <path d="m 311.96924,634.3584 c -0.10168,-0.17067 1.69067,-2.47532 3.98305,-5.12146 3.82741,-4.418 4.14486,-4.93454 3.88475,-6.32087 -0.27468,-1.46422 -0.0827,-1.68295 6.37354,-7.26076 6.65672,-5.75105 6.65672,-5.75105 11.35753,-14.09956 4.30106,-7.63858 4.81003,-8.34937 5.98501,-8.35864 0.70631,-0.005 1.2842,0.15535 1.2842,0.35761 0,0.20226 2.85926,0.87356 6.35384,1.49177 3.91197,0.69206 6.44367,1.35828 6.58765,1.73357 0.38573,1.00515 -1.34048,14.30774 -1.99426,15.36826 -0.59792,0.96999 -12.2808,8.11761 -17.71849,10.84027 -12.91867,6.46841 -25.69932,12.03667 -26.09682,11.36981 z" id="745" style="fill: rgb(237, 223, 208); fill-opacity: 1;" fill="#EDDFD0" cursor="pointer">
      <title id="title8846">КТМ</title>
    </path>
  </g>
</svg>
